
        <svg xmlns="http://www.w3.org/2000/svg" xmlns:xlink="http://www.w3.org/1999/xlink" version="1.1" width="3163.487738419619" 
        height="1502.0435967302456" viewBox="0 0 3163.487738419619 1502.0435967302456">
			<rect fill="#faf9f6" width="3163.487738419619" height="1502.0435967302456"/>
			<g transform="scale(8.174386920980927) translate(10, 10)">
				<defs id="SvgjsDefs1306"></defs><g id="SvgjsG1307" featureKey="symbolContainer" transform="matrix(2.5560852997962904,0,0,2.5560852997962904,20.000018807798714,20.01066793863929)" fill="#232b2b"><path xmlns="http://www.w3.org/2000/svg" d="M23.11 55.78L1.69 43.41A3.39 3.39 0 0 1 0 40.48V15.75a3.39 3.39 0 0 1 1.69-2.94L23.11.45a3.39 3.39 0 0 1 3.39 0l21.41 12.37a3.39 3.39 0 0 1 1.69 2.94v24.72a3.39 3.39 0 0 1-1.69 2.94L26.5 55.78a3.39 3.39 0 0 1-3.39 0z"></path></g><g id="SvgjsG1308" featureKey="monogramFeature-0" transform="matrix(2.12422955412645,0,0,2.12422955412645,51.74738035741598,10.884758010358027)" fill="#00b6e3"><path d="M8.886 53.265 c-0.8448 0 -1.5294 -0.6858 -1.5294 -1.5306 l0 -26.608 c0 -0.8436 0.32162 -1.401 1.0518 -1.8234 l11.077 -6.4026 c0.7308 -0.4224 1.3746 -0.4224 2.1054 0 l5.2511 3.0354 c0.7302 0.4224 1.0518 0.9798 1.0518 1.8234 l0 29.975 c0 0.8448 -0.6852 1.53 -1.53 1.53 s-1.53 -0.6852 -1.53 -1.53 l0 -29.425 l-4.296 -2.4834 l-10.121 5.8506 l0 26.057 c0 0.8448 -0.6852 1.53 -1.53 1.53 z M8.8866 59.99941406 c-0.28799 0 -0.5574 -0.078048 -0.7878 -0.21662 l-5.5158 -3.1884 c-0.7302 -0.4224 -1.0518 -0.9798 -1.0518 -1.8234 l0 -33.01 c0 -0.8436 0.32162 -1.401 1.0518 -1.8234 l5.5158 -3.1884 c0.23039 -0.13858 0.49981 -0.21838 0.7878 -0.21838 c0.8448 0 1.53 0.6852 1.53 1.53 c0 0.57598 -0.31858 1.0776 -0.78894 1.3386 l-5.037 2.9112 l0 31.909 l5.037 2.9112 c0.47039 0.26098 0.78894 0.7626 0.78894 1.3386 c0 0.8448 -0.6852 1.53 -1.53 1.53 z M14.713 60.0011719 c-0.8448 0 -1.5294 -0.68586 -1.5294 -1.5307 l0 -16.505 c0 -0.8436 0.32162 -1.401 1.0518 -1.8234 l5.5314 -3.2016 c0.24117 -0.13922 0.50396 -0.20519 0.76374 -0.20519 c0.52858 0 1.0428 0.27422 1.326 0.765 c0.13922 0.24117 0.20519 0.50396 0.20519 0.76374 l0.0072072 16.839 c0 0.8448 -0.6852 1.53 -1.53 1.53 s-1.53 -0.6852 -1.53 -1.53 l0 -14.186 l-2.766 1.599 l0 15.955 c0 0.8448 -0.6852 1.53 -1.53 1.53 z M14.713 36.428 c-0.8448 0 -1.5294 -0.68586 -1.5294 -1.5307 l0 -6.4026 c0 -0.8436 0.32221 -1.4004 1.0524 -1.8234 l5.5314 -3.2016 c0.24117 -0.13922 0.50396 -0.20519 0.76374 -0.20519 c0.52858 0 1.0428 0.27422 1.326 0.765 c0.13922 0.24117 0.20519 0.50396 0.20519 0.76374 l0.0072072 6.7368 c0 0.8448 -0.6858 1.53 -1.5306 1.53 s-1.53 -0.6852 -1.53 -1.53 l0 -4.0836 l-2.766 1.599 l0 5.8524 c0 0.8448 -0.6852 1.53 -1.53 1.53 z"></path></g><g id="SvgjsG1309" featureKey="nameFeature-0" transform="matrix(0.8105041516138446,0,0,0.8105041516138446,165.37899169677232,58.840168911508975)" fill="#232b2b"><path d="M2 40 l0 -16.8 c0 -11.16 0 -15.56 6 -15.56 s6 4.4 6 15.56 l0 16.8 l-4 0 l0 -9.2 l-4 0 l0 9.2 l-4 0 z M6 27.6 l4 0 l0 -4.4 c0 -10.4 0 -12.36 -2 -12.36 s-2 1.96 -2 12.36 l0 4.4 z M20 40 l0 -32 l3.6 0 l5.24 19.6 l-0.04 -0.4 l0 -19.2 l4 0 l0 32 l-3.6 0 l-5.24 -17.6 l0.04 0.4 l0 17.2 l-4 0 z M38.8 40 l0 -32 l3.6 0 l5.24 19.6 l-0.04 -0.4 l0 -19.2 l4 0 l0 32 l-3.6 0 l-5.24 -17.6 l0.04 0.4 l0 17.2 l-4 0 z M57.599999999999994 40 l0 -16.8 c0 -11.16 0 -15.56 6 -15.56 s6 4.4 6 15.56 l0 16.8 l-4 0 l0 -9.2 l-4 0 l0 9.2 l-4 0 z M61.599999999999994 27.6 l4 0 l0 -4.4 c0 -10.4 0 -12.36 -2 -12.36 s-2 1.96 -2 12.36 l0 4.4 z M86.39999999999999 40 l0 -32 l6.08 0 c4.12 0 5.48 2.56 5.48 7.16 l0 0.84 c0 2.76 -0.64 4.92 -1.36 6.48 l0 0.16 c1.48 1.24 2.4 3.68 2.6 7.92 l0 1.28 c-0.32 5.64 -1.8 8.16 -5.92 8.16 l-6.88 0 z M90.39999999999999 21.6 l2.08 0 c1.12 0 1.92 -1.32 1.92 -5.6 l0 -0.84 c0 -3.08 -0.72 -3.96 -1.92 -3.96 l-2.08 0 l0 10.4 z M90.39999999999999 36 l2.88 0 c1.2 0 2.04 -1 2.2 -4.16 l0 -1.28 c-0.16 -4.76 -1 -5.76 -2.2 -5.76 l-2.88 0 l0 11.2 z M104 40 l0 -16.8 c0 -11.16 0 -15.56 6 -15.56 s6 4.4 6 15.56 l0 16.8 l-4 0 l0 -9.2 l-4 0 l0 9.2 l-4 0 z M108 27.6 l4 0 l0 -4.4 c0 -10.4 0 -12.36 -2 -12.36 s-2 1.96 -2 12.36 l0 4.4 z M121.2 30.240000000000002 l4.04 0 c0.08 5.16 0.48 6.16 1.92 6.16 c1.96 0 1.96 -1.64 1.96 -6 c0 -6.4 -7.92 -4.68 -7.92 -13.2 c0 -5 0 -9.6 6 -9.6 c4.44 0 5.64 2.52 5.92 8.56 l-4 0 c-0.16 -4.36 -0.64 -5.36 -1.92 -5.36 c-1.96 0 -1.96 2.16 -1.96 6.4 c0 6.2 7.96 4 7.96 13.2 c0 5.6 0 10 -6.04 10 c-4.64 0 -5.72 -2.76 -5.96 -10.16 z M138 23.16 c0 -11.16 0 -15.56 5.6 -15.56 c4.12 0 5.24 2.52 5.52 8.56 l-3.72 0 c-0.16 -4.36 -0.6 -5.36 -1.8 -5.36 c-1.84 0 -1.84 1.96 -1.84 12.36 c0 11.56 0 13.24 1.84 13.24 c1.32 0 1.72 -1 1.8 -6.16 l3.76 0 c-0.24 7.4 -1.24 10.16 -5.56 10.16 c-5.6 0 -5.6 -4.44 -5.6 -17.24 z M153.96 40 l0 -32 l4 0 l0 13.6 l4 0 l0 -13.6 l4 0 l0 32 l-4 0 l0 -15.2 l-4 0 l0 15.2 l-4 0 z M171.96 40 l0 -32 l3.6 0 l5.24 19.6 l-0.04 -0.4 l0 -19.2 l4 0 l0 32 l-3.6 0 l-5.24 -17.6 l0.04 0.4 l0 17.2 l-4 0 z M190.76000000000002 40 l0 -16.8 c0 -11.16 0 -15.56 6 -15.56 s6 4.4 6 15.56 l0 16.8 l-4 0 l0 -9.2 l-4 0 l0 9.2 l-4 0 z M194.76000000000002 27.6 l4 0 l0 -4.4 c0 -10.4 0 -12.36 -2 -12.36 s-2 1.96 -2 12.36 l0 4.4 z M208.36 23.16 c0 -11.16 0 -15.56 6 -15.56 c4.56 0 5.64 2.52 5.92 8.56 l-3.72 0 c-0.16 -4.36 -0.6 -5.36 -2.2 -5.36 c-2.24 0 -2.24 1.96 -2.24 12.36 c0 11.56 0 13.24 2.24 13.24 c2.12 0 2.24 -1.52 2.24 -10 l-2.64 0 l0 -3.2 l6.4 0 l0 1.56 c0 11.2 0 15.64 -6 15.64 s-6 -4.44 -6 -17.24 z M225.56000000000003 40 l0 -32 l9.2 0 l0 3.2 l-5.2 0 l0 10.4 l4.4 0 l0 3.2 l-4.4 0 l0 11.2 l5.2 0 l0 4 l-9.2 0 z M239.56000000000003 40 l0 -32 l4 0 l0 28 l5.2 0 l0 4 l-9.2 0 z"></path></g><g id="SvgjsG1310" featureKey="sloganFeature-0" transform="matrix(1.1109147595491486,0,0,1.1109147595491486,166.95549697145373,96.60095306081715)" fill="#232b2b"><path d="M7.92 16.12 c0 1.2267 -0.3199 2.21 -0.9599 2.95 s-1.5933 1.11 -2.86 1.11 c-0.74666 0 -1.3767 -0.10666 -1.89 -0.32 s-0.93 -0.52 -1.25 -0.92 s-0.55 -0.88 -0.69 -1.44 s-0.20334 -1.1867 -0.19 -1.88 l0.02 -0.52 l1.54 0 c0 0.42666 0.01334 0.86332 0.04 1.31 s0.11332 0.85332 0.25998 1.22 s0.37332 0.66666 0.67998 0.9 s0.74666 0.35 1.32 0.35 c0.88 0 1.5267 -0.23334 1.94 -0.7 s0.62 -1.12 0.62 -1.96 c0 -0.66666 -0.16 -1.1933 -0.48 -1.58 s-0.72 -0.71332 -1.2 -0.97998 s-0.99666 -0.50666 -1.55 -0.72 s-1.07 -0.48 -1.55 -0.8 s-0.88 -0.73 -1.2 -1.23 s-0.48 -1.1633 -0.48 -1.99 c0 -1.3333 0.34334 -2.3434 1.03 -3.03 s1.6967 -1.03 3.03 -1.03 c0.62666 0 1.17 0.1 1.63 0.3 s0.84334 0.48 1.15 0.84 s0.53332 0.78666 0.67998 1.28 s0.22 1.04 0.22 1.64 l0 1.26 l-1.46 0 c0 -0.44 -0.0033398 -0.89666 -0.01 -1.37 s-0.07666 -0.90668 -0.21 -1.3 s-0.35668 -0.71668 -0.67002 -0.97002 s-0.77 -0.38 -1.37 -0.38 c-0.86666 0 -1.52 0.22 -1.96 0.66 s-0.64666 1.0867 -0.62 1.94 l0 0.2 c0.01334 0.41334 0.08334 0.75668 0.21 1.03 s0.3 0.50668 0.52 0.70002 s0.47666 0.36334 0.77 0.51 s0.61334 0.3 0.96 0.46 c0.50666 0.22666 1 0.46666 1.48 0.72 s0.90334 0.55 1.27 0.89 s0.66332 0.74 0.88998 1.2 s0.34 1.01 0.34 1.65 z M20.3405 16.12 c0 1.4133 -0.31666 2.4434 -0.95 3.09 s-1.6633 0.97 -3.09 0.97 c-1.3067 0 -2.2634 -0.36 -2.87 -1.08 s-0.91 -1.7133 -0.91 -2.98 l0 -7.2 c0 -1.3733 0.32334 -2.3934 0.97 -3.06 s1.6633 -1 3.05 -1 c1.32 0 2.2834 0.35 2.89 1.05 s0.91 1.69 0.91 2.97 l0 7.24 z M18.9405 16.08 l-0.000019531 -7.22 c0 -0.76 -0.2 -1.3933 -0.6 -1.9 s-1.0067 -0.76 -1.82 -0.76 c-0.97334 0 -1.65 0.25334 -2.03 0.76 s-0.57 1.22 -0.57 2.14 l0 6.9 c0 0.38666 0.04334 0.75 0.13 1.09 s0.22666 0.63666 0.42 0.89 s0.44 0.45334 0.74 0.6 s0.66334 0.22 1.09 0.22 c0.93334 0 1.6067 -0.22666 2.02 -0.68 s0.62 -1.1333 0.62 -2.04 z M32.341 6.5 l-5.78 0 l0 5.5 l5.68 0 l0 1.44 l-5.68 0 l0 6.56 l-1.5 0 l0 -15 l7.28 0 l0 1.5 z M44.441500000000005 6.460000000000001 l-3.1 0 l0 13.54 l-1.48 0 l0 -13.54 l-3.1 0 l0 -1.46 l7.68 0 l0 1.46 z M63.102000000000004 5 l-3.44 15 l-1.28 0 l-2.5 -12.24 l-2.48 12.24 l-1.26 0 l-3.44 -15 l1.44 0 l2.52 12 l2.76 -11.96 l-0.02 -0.04 l0.02 0 l0.96 0 l0.11 0.49 c0.07334 0.32666 0.17 0.75332 0.29 1.28 s0.25666 1.1333 0.41 1.82 s0.31334 1.39 0.48 2.11 s0.33 1.4333 0.49 2.14 s0.30666 1.35 0.44 1.93 s0.24668 1.07 0.34002 1.47 s0.15334 0.65334 0.18 0.76 l2.52 -12 l1.46 0 z M74.84249999999999 20 l-1.4 0 l-1.06 -4.3 l-4.36 0 l-1.06 4.3 l-1.36 0 l4.06 -15 l1.14 0 z M72.04249999999999 14.36 l-1.78 -7.42 l-1.9 7.42 l3.68 0 z M87.98299999999998 20 l-1.72 -0.000019531 l-3.14 -6.06 l-2.6 0 l0 6.06 l-1.34 0 l0 -15 l3.44 0 c1.3733 0 2.46 0.39334 3.26 1.18 s1.2 1.8667 1.2 3.24 c0 0.42666 -0.05666 0.86 -0.17 1.3 s-0.27668 0.85334 -0.49002 1.24 s-0.47668 0.73666 -0.79002 1.05 s-0.67 0.55668 -1.07 0.73002 z M85.66299999999998 9.32 c0 -0.46666 -0.08 -0.88664 -0.24 -1.26 s-0.38 -0.69 -0.66 -0.95 s-0.61334 -0.46 -1 -0.6 s-0.80666 -0.21 -1.26 -0.21 l-1.98 0 l0 6.26 l2.1 0 c1.0667 0 1.84 -0.28666 2.32 -0.86 s0.72 -1.3667 0.72 -2.38 z M99.92349999999998 20 l-7.5 0 l0 -15 l7.36 0 l0 1.52 l-5.98 0 l0 5.16 l5.94 0 l0 1.3 l-5.94 0 l0 5.5 l6.12 0 l0 1.52 z M118.78449999999997 12.18 c0 0.49334 0.0033984 1.03 0.010059 1.61 s-0.01668 1.16 -0.07002 1.74 s-0.15 1.14 -0.29 1.68 s-0.35666 1.0167 -0.65 1.43 s-0.67668 0.74334 -1.15 0.99 s-1.0633 0.37 -1.77 0.37 l-3.64 0 l0 -15 l3.5 0 c0.73334 0 1.34 0.10334 1.82 0.31 s0.87334 0.48666 1.18 0.84 s0.53332 0.76668 0.67998 1.24 s0.24666 0.97668 0.3 1.51 s0.08 1.08 0.08 1.64 l0 1.64 z M117.42449999999997 12.32 l0.000019531 -0.85996 c0 -0.37334 -0.01 -0.76 -0.03 -1.16 s-0.04666 -0.78 -0.08 -1.14 s-0.07668 -0.62666 -0.13002 -0.8 c-0.22666 -0.66666 -0.54 -1.16 -0.94 -1.48 s-0.96 -0.48 -1.68 -0.48 l-2 0 l0 12.16 l2.26 0 c0.29334 0 0.56 -0.05334 0.8 -0.16 s0.46 -0.25 0.66 -0.43 s0.37 -0.38666 0.51 -0.62 s0.25666 -0.47668 0.35 -0.73002 c0.06666 -0.17334 0.11666 -0.45668 0.15 -0.85002 s0.06 -0.81 0.08 -1.25 s0.03334 -0.86334 0.04 -1.27 s0.01 -0.71666 0.01 -0.93 z M131.10499999999996 20 l-7.5 0 l0 -15 l7.36 0 l0 1.52 l-5.98 0 l0 5.16 l5.94 0 l0 1.3 l-5.94 0 l0 5.5 l6.12 0 l0 1.52 z M144.06549999999996 5 l-4.08 15 l-1.14 0 l-4.06 -15 l1.42 0 l3.2 12.32 l3.28 -12.32 l1.38 0 z"></path></g>
			</g>
		</svg>
	